<?xml version="1.0" encoding="utf-8"?>
<!-- Generator: Adobe Illustrator 18.0.0, SVG Export Plug-In . SVG Version: 6.00 Build 0)  -->
<!DOCTYPE svg PUBLIC "-//W3C//DTD SVG 1.1//EN" "http://www.w3.org/Graphics/SVG/1.1/DTD/svg11.dtd">
<svg version="1.1" id="Layer_1" xmlns:sketch="http://www.bohemiancoding.com/sketch/ns"
	 xmlns="http://www.w3.org/2000/svg" xmlns:xlink="http://www.w3.org/1999/xlink" x="0px" y="0px" width="20px" height="20px"
	 viewBox="0 0 20 20" enable-background="new 0 0 20 20" xml:space="preserve">
<title>filter</title>
<desc>Created with Sketch.</desc>
<g>
	<path fill="#666666" d="M8,4C7.7,2.9,6.7,2,5.5,2S3.3,2.9,3,4H0v1h3.1c0.3,1.1,1.2,1.9,2.4,1.9S7.7,6.1,7.9,5H20V4H8z M5.5,6
		C4.7,6,4,5.3,4,4.5S4.7,3,5.5,3S7,3.7,7,4.5S6.3,6,5.5,6z"/>
	<path fill="#666666" d="M5.5,12c-1.2,0-2.2,0.9-2.5,2H0v1h3.1c0.3,1.1,1.2,1.9,2.4,1.9s2.2-0.8,2.4-1.9H20v-1H8
		C7.7,12.9,6.7,12,5.5,12z M5.5,16C4.7,16,4,15.3,4,14.5S4.7,13,5.5,13S7,13.7,7,14.5S6.3,16,5.5,16z"/>
	<path fill="#666666" d="M14.5,7c-1.2,0-2.2,0.9-2.5,2H0v1h12.1c0.3,1.1,1.2,1.9,2.4,1.9s2.2-0.8,2.4-1.9H20V9h-3
		C16.7,7.9,15.7,7,14.5,7z M14.5,11c-0.8,0-1.5-0.7-1.5-1.5S13.7,8,14.5,8S16,8.7,16,9.5S15.3,11,14.5,11z"/>
</g>
</svg>
