<?xml version="1.0" encoding="utf-8"?>
<!-- Generator: Adobe Illustrator 18.0.0, SVG Export Plug-In . SVG Version: 6.00 Build 0)  -->
<!DOCTYPE svg PUBLIC "-//W3C//DTD SVG 1.1//EN" "http://www.w3.org/Graphics/SVG/1.1/DTD/svg11.dtd">
<svg version="1.1" id="Layer_1" xmlns:sketch="http://www.bohemiancoding.com/sketch/ns"
	 xmlns="http://www.w3.org/2000/svg" xmlns:xlink="http://www.w3.org/1999/xlink" x="0px" y="0px" width="93px" height="17px"
	 viewBox="0 0 93 17" enable-background="new 0 0 93 17" xml:space="preserve">
<title>logo_mob</title>
<desc>Created with Sketch.</desc>
<g>
	<path fill="#666666" d="M87.2,6.8h-2.2V3.1h6.3V1h-8.6v15h4.5c3.3,0,5.1-1.8,5.1-4.6C92.3,8.6,90.4,6.8,87.2,6.8z M86.8,13.9h-1.9
		v-5h1.9c2.3,0,3.1,0.9,3.1,2.5S89.1,13.9,86.8,13.9z"/>
	<path fill="#666666" d="M71.2,1l-3,15h2.2l0.8-4.5h4.2l0.8,4.5h2.2l-3-15H71.2z M71.6,9.4l1.2-6.1h1.2l1.1,6.1H71.6z"/>
	<path fill="#666666" d="M3.6,1l-3,15h2.2l0.8-4.5h4.2L8.7,16H11L8,1H3.6z M4.1,9.4l1.2-6.1h1.2l1.1,6.1H4.1z"/>
	<path fill="#666666" d="M22.7,8.4V7.8c1.1-0.6,1.6-1.6,1.6-2.9c0-2.2-1.5-3.9-4.6-3.9h-4.6v15h4.5c3.4,0,5.1-1.9,5.1-4.3
		C24.7,10.2,24.1,9.1,22.7,8.4z M17.4,3.1h2.1c1.9,0,2.6,0.8,2.6,2c0,1.3-0.7,2-2.6,2h-2.1V3.1z M19.5,13.9h-2.1V9.3h2.1
		c2.1,0,2.9,0.9,2.9,2.3C22.4,13,21.6,13.9,19.5,13.9z"/>
	<path fill="#666666" d="M45.6,0.7c-3.8,0-5.3,3.2-5.3,7.8c0,4.5,1.4,7.8,5.3,7.8s5.3-3.3,5.3-7.8C50.9,4,49.5,0.7,45.6,0.7z
		 M45.6,14.1c-2.4,0-3-2.2-3-5.6c0-3.4,0.7-5.6,3-5.6s3,2.2,3,5.6C48.6,11.9,48,14.1,45.6,14.1z"/>
	<polygon fill="#666666" points="27.7,3.1 31.2,3.1 31.2,16 33.5,16 33.5,3.1 37.1,3.1 37.1,1 27.7,1 	"/>
	<polygon fill="#666666" points="64.8,1 62.4,1 60.3,6.7 59.2,6.7 57.1,1 54.7,1 57.3,8.1 54.4,16 56.8,16 59.1,9.5 60.3,9.5 
		62.6,16 65.1,16 62.2,8.1 	"/>
</g>
</svg>
