<?xml version="1.0" encoding="UTF-8" standalone="no"?>
<svg width="155px" height="27px" viewBox="0 0 155 27" version="1.1" xmlns="http://www.w3.org/2000/svg" xmlns:xlink="http://www.w3.org/1999/xlink" xmlns:sketch="http://www.bohemiancoding.com/sketch/ns">
    <!-- Generator: Sketch 3.3.3 (12072) - http://www.bohemiancoding.com/sketch -->
    <title>logo</title>
    <desc>Created with Sketch.</desc>
    <defs></defs>
    <g id="Page-1" stroke="none" stroke-width="1" fill="none" fill-rule="evenodd" sketch:type="MSPage">
        <g id="Artboard-19" sketch:type="MSArtboardGroup" transform="translate(-19.000000, -60.000000)" fill="#666666">
            <path d="M33.56,86 L37.305,86 L32.3,61.01 L25.02,61.01 L20.05,86 L23.725,86 L25.09,78.58 L32.16,78.58 L33.56,86 Z M27.68,64.86 L29.605,64.86 L31.495,75.08 L25.755,75.08 L27.68,64.86 Z M56.8700004,72.315 C58.6900004,71.3 59.5650004,69.655 59.5650004,67.485 C59.5650004,63.845 57.0100004,61.01 51.9350004,61.01 L44.2000004,61.01 L44.2000004,86 L51.6550004,86 C57.3250004,86 60.1950004,82.815 60.1950004,78.755 C60.1950004,76.305 59.1450004,74.45 56.8700004,73.295 L56.8700004,72.315 Z M51.4800004,71.265 L47.9450004,71.265 L47.9450004,64.51 L51.4800004,64.51 C54.5950004,64.51 55.7500004,65.77 55.7500004,67.905 C55.7500004,70.005 54.5950004,71.265 51.4800004,71.265 L51.4800004,71.265 Z M51.4800004,82.5 L47.9450004,82.5 L47.9450004,74.765 L51.4800004,74.765 C55.0500004,74.765 56.3800004,76.2 56.3800004,78.65 C56.3800004,81.065 55.0500004,82.5 51.4800004,82.5 L51.4800004,82.5 Z M80.8100009,61.01 L65.0950009,61.01 L65.0950009,64.51 L71.0800009,64.51 L71.0800009,86 L74.8250009,86 L74.8250009,64.51 L80.8100009,64.51 L80.8100009,61.01 Z M95.0550013,60.555 C88.6500013,60.555 86.2350013,65.945 86.2350013,73.505 C86.2350013,81.03 88.6500013,86.455 95.0550013,86.455 C101.460001,86.455 103.875001,81.03 103.875001,73.505 C103.875001,65.945 101.460001,60.555 95.0550013,60.555 L95.0550013,60.555 Z M95.0550013,82.85 C91.1350013,82.85 90.0500013,79.21 90.0500013,73.505 C90.0500013,67.8 91.1350013,64.16 95.0550013,64.16 C98.9750013,64.16 100.060001,67.8 100.060001,73.505 C100.060001,79.21 98.9750013,82.85 95.0550013,82.85 L95.0550013,82.85 Z M119.450002,75.15 L123.370002,86 L127.430002,86 L122.600002,72.77 L126.940002,61.01 L123.020002,61.01 L119.520002,70.53 L117.630002,70.53 L114.130002,61.01 L110.140002,61.01 L114.480002,72.77 L109.650002,86 L113.640002,86 L117.560002,75.15 L119.450002,75.15 Z M146.190002,86 L149.935002,86 L144.930002,61.01 L137.650002,61.01 L132.680002,86 L136.355002,86 L137.720002,78.58 L144.790002,78.58 L146.190002,86 Z M140.310002,64.86 L142.235002,64.86 L144.125002,75.08 L138.385002,75.08 L140.310002,64.86 Z M171.145003,64.51 L171.145003,61.01 L156.830003,61.01 L156.830003,86 L164.250003,86 C169.675003,86 172.755003,83.025 172.755003,78.335 C172.755003,73.61 169.675003,70.74 164.250003,70.74 L160.575003,70.74 L160.575003,64.51 L171.145003,64.51 Z M163.725003,82.5 L160.575003,82.5 L160.575003,74.24 L163.725003,74.24 C167.540003,74.24 168.940003,75.78 168.940003,78.37 C168.940003,80.96 167.540003,82.5 163.725003,82.5 L163.725003,82.5 Z" id="АВТОХАБ" sketch:type="MSShapeGroup"></path>
        </g>
    </g>
</svg>